<mxfile host="app.diagrams.net" modified="2022-09-03T03:57:42.534Z" agent="5.0 (Windows NT 10.0; Win64; x64) AppleWebKit/537.36 (KHTML, like Gecko) Chrome/104.0.0.0 Safari/537.36" etag="e3Lo9LKSq-nEymazLXnh" version="20.2.8" type="github">
  <diagram id="R2lEEEUBdFMjLlhIrx00" name="Page-1">
    <mxGraphModel dx="2844" dy="1508" grid="1" gridSize="10" guides="1" tooltips="1" connect="1" arrows="1" fold="1" page="1" pageScale="1" pageWidth="2336" pageHeight="1654" math="0" shadow="0" extFonts="Permanent Marker^https://fonts.googleapis.com/css?family=Permanent+Marker">
      <root>
        <mxCell id="0" />
        <mxCell id="1" parent="0" />
        <mxCell id="C-vyLk0tnHw3VtMMgP7b-1" value="" style="edgeStyle=entityRelationEdgeStyle;endArrow=ERzeroToMany;startArrow=ERone;endFill=1;startFill=0;" parent="1" source="C-vyLk0tnHw3VtMMgP7b-24" target="C-vyLk0tnHw3VtMMgP7b-6" edge="1">
          <mxGeometry width="100" height="100" relative="1" as="geometry">
            <mxPoint x="340" y="720" as="sourcePoint" />
            <mxPoint x="440" y="620" as="targetPoint" />
          </mxGeometry>
        </mxCell>
        <mxCell id="C-vyLk0tnHw3VtMMgP7b-12" value="" style="edgeStyle=entityRelationEdgeStyle;endArrow=ERzeroToMany;startArrow=ERone;endFill=1;startFill=0;" parent="1" source="C-vyLk0tnHw3VtMMgP7b-3" target="C-vyLk0tnHw3VtMMgP7b-17" edge="1">
          <mxGeometry width="100" height="100" relative="1" as="geometry">
            <mxPoint x="400" y="180" as="sourcePoint" />
            <mxPoint x="460" y="205" as="targetPoint" />
          </mxGeometry>
        </mxCell>
        <mxCell id="C-vyLk0tnHw3VtMMgP7b-2" value="Orders" style="shape=table;startSize=30;container=1;collapsible=1;childLayout=tableLayout;fixedRows=1;rowLines=0;fontStyle=1;align=center;resizeLast=1;" parent="1" vertex="1">
          <mxGeometry x="450" y="120" width="250" height="130" as="geometry" />
        </mxCell>
        <mxCell id="C-vyLk0tnHw3VtMMgP7b-3" value="" style="shape=partialRectangle;collapsible=0;dropTarget=0;pointerEvents=0;fillColor=none;points=[[0,0.5],[1,0.5]];portConstraint=eastwest;top=0;left=0;right=0;bottom=1;" parent="C-vyLk0tnHw3VtMMgP7b-2" vertex="1">
          <mxGeometry y="30" width="250" height="30" as="geometry" />
        </mxCell>
        <mxCell id="C-vyLk0tnHw3VtMMgP7b-4" value="PK" style="shape=partialRectangle;overflow=hidden;connectable=0;fillColor=none;top=0;left=0;bottom=0;right=0;fontStyle=1;" parent="C-vyLk0tnHw3VtMMgP7b-3" vertex="1">
          <mxGeometry width="30" height="30" as="geometry" />
        </mxCell>
        <mxCell id="C-vyLk0tnHw3VtMMgP7b-5" value="order_id int NOT NULL " style="shape=partialRectangle;overflow=hidden;connectable=0;fillColor=none;top=0;left=0;bottom=0;right=0;align=left;spacingLeft=6;fontStyle=5;" parent="C-vyLk0tnHw3VtMMgP7b-3" vertex="1">
          <mxGeometry x="30" width="220" height="30" as="geometry" />
        </mxCell>
        <mxCell id="C-vyLk0tnHw3VtMMgP7b-6" value="" style="shape=partialRectangle;collapsible=0;dropTarget=0;pointerEvents=0;fillColor=none;points=[[0,0.5],[1,0.5]];portConstraint=eastwest;top=0;left=0;right=0;bottom=0;" parent="C-vyLk0tnHw3VtMMgP7b-2" vertex="1">
          <mxGeometry y="60" width="250" height="30" as="geometry" />
        </mxCell>
        <mxCell id="C-vyLk0tnHw3VtMMgP7b-7" value="FK1" style="shape=partialRectangle;overflow=hidden;connectable=0;fillColor=none;top=0;left=0;bottom=0;right=0;" parent="C-vyLk0tnHw3VtMMgP7b-6" vertex="1">
          <mxGeometry width="30" height="30" as="geometry" />
        </mxCell>
        <mxCell id="C-vyLk0tnHw3VtMMgP7b-8" value="customer_id int NOT NULL" style="shape=partialRectangle;overflow=hidden;connectable=0;fillColor=none;top=0;left=0;bottom=0;right=0;align=left;spacingLeft=6;" parent="C-vyLk0tnHw3VtMMgP7b-6" vertex="1">
          <mxGeometry x="30" width="220" height="30" as="geometry" />
        </mxCell>
        <mxCell id="C-vyLk0tnHw3VtMMgP7b-9" value="" style="shape=partialRectangle;collapsible=0;dropTarget=0;pointerEvents=0;fillColor=none;points=[[0,0.5],[1,0.5]];portConstraint=eastwest;top=0;left=0;right=0;bottom=0;" parent="C-vyLk0tnHw3VtMMgP7b-2" vertex="1">
          <mxGeometry y="90" width="250" height="30" as="geometry" />
        </mxCell>
        <mxCell id="C-vyLk0tnHw3VtMMgP7b-10" value="" style="shape=partialRectangle;overflow=hidden;connectable=0;fillColor=none;top=0;left=0;bottom=0;right=0;" parent="C-vyLk0tnHw3VtMMgP7b-9" vertex="1">
          <mxGeometry width="30" height="30" as="geometry" />
        </mxCell>
        <mxCell id="C-vyLk0tnHw3VtMMgP7b-11" value="order_date date NOT NULL" style="shape=partialRectangle;overflow=hidden;connectable=0;fillColor=none;top=0;left=0;bottom=0;right=0;align=left;spacingLeft=6;" parent="C-vyLk0tnHw3VtMMgP7b-9" vertex="1">
          <mxGeometry x="30" width="220" height="30" as="geometry" />
        </mxCell>
        <mxCell id="C-vyLk0tnHw3VtMMgP7b-13" value="Shipments" style="shape=table;startSize=30;container=1;collapsible=1;childLayout=tableLayout;fixedRows=1;rowLines=0;fontStyle=1;align=center;resizeLast=1;" parent="1" vertex="1">
          <mxGeometry x="450" y="280" width="250" height="130" as="geometry" />
        </mxCell>
        <mxCell id="C-vyLk0tnHw3VtMMgP7b-14" value="" style="shape=partialRectangle;collapsible=0;dropTarget=0;pointerEvents=0;fillColor=none;points=[[0,0.5],[1,0.5]];portConstraint=eastwest;top=0;left=0;right=0;bottom=1;" parent="C-vyLk0tnHw3VtMMgP7b-13" vertex="1">
          <mxGeometry y="30" width="250" height="30" as="geometry" />
        </mxCell>
        <mxCell id="C-vyLk0tnHw3VtMMgP7b-15" value="PK" style="shape=partialRectangle;overflow=hidden;connectable=0;fillColor=none;top=0;left=0;bottom=0;right=0;fontStyle=1;" parent="C-vyLk0tnHw3VtMMgP7b-14" vertex="1">
          <mxGeometry width="30" height="30" as="geometry" />
        </mxCell>
        <mxCell id="C-vyLk0tnHw3VtMMgP7b-16" value="shipment_id int NOT NULL " style="shape=partialRectangle;overflow=hidden;connectable=0;fillColor=none;top=0;left=0;bottom=0;right=0;align=left;spacingLeft=6;fontStyle=5;" parent="C-vyLk0tnHw3VtMMgP7b-14" vertex="1">
          <mxGeometry x="30" width="220" height="30" as="geometry" />
        </mxCell>
        <mxCell id="C-vyLk0tnHw3VtMMgP7b-17" value="" style="shape=partialRectangle;collapsible=0;dropTarget=0;pointerEvents=0;fillColor=none;points=[[0,0.5],[1,0.5]];portConstraint=eastwest;top=0;left=0;right=0;bottom=0;" parent="C-vyLk0tnHw3VtMMgP7b-13" vertex="1">
          <mxGeometry y="60" width="250" height="30" as="geometry" />
        </mxCell>
        <mxCell id="C-vyLk0tnHw3VtMMgP7b-18" value="FK1" style="shape=partialRectangle;overflow=hidden;connectable=0;fillColor=none;top=0;left=0;bottom=0;right=0;" parent="C-vyLk0tnHw3VtMMgP7b-17" vertex="1">
          <mxGeometry width="30" height="30" as="geometry" />
        </mxCell>
        <mxCell id="C-vyLk0tnHw3VtMMgP7b-19" value="order_id int NOT NULL" style="shape=partialRectangle;overflow=hidden;connectable=0;fillColor=none;top=0;left=0;bottom=0;right=0;align=left;spacingLeft=6;" parent="C-vyLk0tnHw3VtMMgP7b-17" vertex="1">
          <mxGeometry x="30" width="220" height="30" as="geometry" />
        </mxCell>
        <mxCell id="C-vyLk0tnHw3VtMMgP7b-20" value="" style="shape=partialRectangle;collapsible=0;dropTarget=0;pointerEvents=0;fillColor=none;points=[[0,0.5],[1,0.5]];portConstraint=eastwest;top=0;left=0;right=0;bottom=0;" parent="C-vyLk0tnHw3VtMMgP7b-13" vertex="1">
          <mxGeometry y="90" width="250" height="30" as="geometry" />
        </mxCell>
        <mxCell id="C-vyLk0tnHw3VtMMgP7b-21" value="" style="shape=partialRectangle;overflow=hidden;connectable=0;fillColor=none;top=0;left=0;bottom=0;right=0;" parent="C-vyLk0tnHw3VtMMgP7b-20" vertex="1">
          <mxGeometry width="30" height="30" as="geometry" />
        </mxCell>
        <mxCell id="C-vyLk0tnHw3VtMMgP7b-22" value="shipment_date date NOT NULL" style="shape=partialRectangle;overflow=hidden;connectable=0;fillColor=none;top=0;left=0;bottom=0;right=0;align=left;spacingLeft=6;" parent="C-vyLk0tnHw3VtMMgP7b-20" vertex="1">
          <mxGeometry x="30" width="220" height="30" as="geometry" />
        </mxCell>
        <mxCell id="C-vyLk0tnHw3VtMMgP7b-23" value="Customers" style="shape=table;startSize=30;container=1;collapsible=1;childLayout=tableLayout;fixedRows=1;rowLines=0;fontStyle=1;align=center;resizeLast=1;" parent="1" vertex="1">
          <mxGeometry x="120" y="120" width="250" height="100" as="geometry" />
        </mxCell>
        <mxCell id="C-vyLk0tnHw3VtMMgP7b-24" value="" style="shape=partialRectangle;collapsible=0;dropTarget=0;pointerEvents=0;fillColor=none;points=[[0,0.5],[1,0.5]];portConstraint=eastwest;top=0;left=0;right=0;bottom=1;" parent="C-vyLk0tnHw3VtMMgP7b-23" vertex="1">
          <mxGeometry y="30" width="250" height="30" as="geometry" />
        </mxCell>
        <mxCell id="C-vyLk0tnHw3VtMMgP7b-25" value="PK" style="shape=partialRectangle;overflow=hidden;connectable=0;fillColor=none;top=0;left=0;bottom=0;right=0;fontStyle=1;" parent="C-vyLk0tnHw3VtMMgP7b-24" vertex="1">
          <mxGeometry width="30" height="30" as="geometry" />
        </mxCell>
        <mxCell id="C-vyLk0tnHw3VtMMgP7b-26" value="customer_id int NOT NULL " style="shape=partialRectangle;overflow=hidden;connectable=0;fillColor=none;top=0;left=0;bottom=0;right=0;align=left;spacingLeft=6;fontStyle=5;" parent="C-vyLk0tnHw3VtMMgP7b-24" vertex="1">
          <mxGeometry x="30" width="220" height="30" as="geometry" />
        </mxCell>
        <mxCell id="C-vyLk0tnHw3VtMMgP7b-27" value="" style="shape=partialRectangle;collapsible=0;dropTarget=0;pointerEvents=0;fillColor=none;points=[[0,0.5],[1,0.5]];portConstraint=eastwest;top=0;left=0;right=0;bottom=0;" parent="C-vyLk0tnHw3VtMMgP7b-23" vertex="1">
          <mxGeometry y="60" width="250" height="30" as="geometry" />
        </mxCell>
        <mxCell id="C-vyLk0tnHw3VtMMgP7b-28" value="" style="shape=partialRectangle;overflow=hidden;connectable=0;fillColor=none;top=0;left=0;bottom=0;right=0;" parent="C-vyLk0tnHw3VtMMgP7b-27" vertex="1">
          <mxGeometry width="30" height="30" as="geometry" />
        </mxCell>
        <mxCell id="C-vyLk0tnHw3VtMMgP7b-29" value="customer_name char(50) NOT NULL" style="shape=partialRectangle;overflow=hidden;connectable=0;fillColor=none;top=0;left=0;bottom=0;right=0;align=left;spacingLeft=6;" parent="C-vyLk0tnHw3VtMMgP7b-27" vertex="1">
          <mxGeometry x="30" width="220" height="30" as="geometry" />
        </mxCell>
        <mxCell id="LlD2N6Lq6FNutBNXST0i-5" value="EmpDTO" style="swimlane;fontStyle=1;align=center;verticalAlign=top;childLayout=stackLayout;horizontal=1;startSize=26;horizontalStack=0;resizeParent=1;resizeParentMax=0;resizeLast=0;collapsible=1;marginBottom=0;fontSize=10;" vertex="1" parent="1">
          <mxGeometry x="890" y="540" width="160" height="1140" as="geometry" />
        </mxCell>
        <mxCell id="LlD2N6Lq6FNutBNXST0i-6" value="-empNo : String       &#xa;-pwd : String&#xa;-tel : String               &#xa;-email : String&#xa;-addr : String           &#xa;-edu : String&#xa;-account : String      &#xa;-hire_class : String&#xa;-depNo : String        &#xa;-dep : String&#xa;-rankNo : String       &#xa;-rank : String&#xa;-carNo : String        &#xa;-cDiv : String&#xa;-car_date : String     &#xa;-cNote : String&#xa;-asalNo : String        &#xa;-sal_date : String&#xa;-asal : int                  &#xa;-settleNo : String&#xa;-sal : int                    &#xa;-tax : int    &#xa;-bonus : int             &#xa;-pay : int&#xa;-pay_date : String   &#xa;-attNo : String&#xa;-aDiv : String           &#xa; -sTime : String&#xa;-eTime : String         &#xa;-aNote : String" style="text;strokeColor=none;fillColor=none;align=left;verticalAlign=top;spacingLeft=4;spacingRight=4;overflow=hidden;rotatable=0;points=[[0,0.5],[1,0.5]];portConstraint=eastwest;fontSize=10;" vertex="1" parent="LlD2N6Lq6FNutBNXST0i-5">
          <mxGeometry y="26" width="160" height="374" as="geometry" />
        </mxCell>
        <mxCell id="LlD2N6Lq6FNutBNXST0i-20" value="Use" style="endArrow=open;endSize=12;dashed=1;html=1;rounded=0;fontSize=10;" edge="1" parent="LlD2N6Lq6FNutBNXST0i-5">
          <mxGeometry width="160" relative="1" as="geometry">
            <mxPoint x="-100" y="280" as="sourcePoint" />
            <mxPoint y="280" as="targetPoint" />
          </mxGeometry>
        </mxCell>
        <mxCell id="LlD2N6Lq6FNutBNXST0i-7" value="" style="line;strokeWidth=1;fillColor=none;align=left;verticalAlign=middle;spacingTop=-1;spacingLeft=3;spacingRight=3;rotatable=0;labelPosition=right;points=[];portConstraint=eastwest;strokeColor=inherit;fontSize=10;" vertex="1" parent="LlD2N6Lq6FNutBNXST0i-5">
          <mxGeometry y="400" width="160" height="8" as="geometry" />
        </mxCell>
        <mxCell id="LlD2N6Lq6FNutBNXST0i-8" value="+getEmpNo() : String          &#xa;+setEmpNo(String) : void &#xa;+getPwd() : String              &#xa;+setPwd(String) : void&#xa;+getTel() : String                &#xa;+setTel(String) : void&#xa;+getEmail() : String            &#xa;+setEmail(String) : void&#xa;+getAddr() : String              &#xa;+setAddr(String) : void&#xa;+getEdu() : String                &#xa;+setEdu(String) : void&#xa;+getAccount() : String         &#xa;+setAccount(String) : void&#xa;+getHire_class() : String    &#xa;+setHire_class(String) : void&#xa;+getDepNo() : String          &#xa;+setDepNo(String) : void&#xa;+getDep() : String               &#xa;+setDep(String) : void&#xa;+getRankNo() : String        &#xa;+setRankNo(String) : void&#xa;+getRank() : String            &#xa;+setRank(String) : void&#xa;+getCarNo() : String           &#xa;+setCarNo(String) : void&#xa;+getcDiv() : String              &#xa;+setcDiv(String) : void&#xa;+getCar_date() : String      &#xa;+setCar_date(String) : void&#xa;+getcNote() : String            &#xa;+setcNote(String) : void&#xa;+getAsalNo() : String          &#xa;+setAsalNo(String) : void&#xa;+getSal_date() : String       &#xa;+setSal_date(String) : void&#xa;+getAsal() : int                    &#xa;+setAsal(int) : void&#xa;+getSettleNo() : String       &#xa;+setSettleNo(String) : void&#xa;+getSal() : int                     &#xa;+setSal(int) : void&#xa;+getTax() : int                    &#xa;+setTax(int) : void&#xa;+getBonus() : int                &#xa;+setBonus(int) : void&#xa;+getPay() : int                   &#xa;+setPay(int) : void&#xa;+getPay_date() : String     &#xa;+setPay_date(String) : void    &#xa;+getAttNo() : String           &#xa;+setAttNo(String) : void&#xa;+getaDiv() : String            &#xa;+setaDiv(String) : void&#xa;+getsTime() : String           &#xa;+setsTime(String) : void&#xa;+geteTime() : String           &#xa;+seteTime(String) : void&#xa;+getaNote() : String            &#xa;+setaNote(String) : void" style="text;strokeColor=none;fillColor=none;align=left;verticalAlign=top;spacingLeft=4;spacingRight=4;overflow=hidden;rotatable=0;points=[[0,0.5],[1,0.5]];portConstraint=eastwest;fontSize=10;" vertex="1" parent="LlD2N6Lq6FNutBNXST0i-5">
          <mxGeometry y="408" width="160" height="732" as="geometry" />
        </mxCell>
        <mxCell id="LlD2N6Lq6FNutBNXST0i-9" value="EmpDAOImpl" style="swimlane;fontStyle=1;align=center;verticalAlign=top;childLayout=stackLayout;horizontal=1;startSize=26;horizontalStack=0;resizeParent=1;resizeParentMax=0;resizeLast=0;collapsible=1;marginBottom=0;fontSize=10;" vertex="1" parent="1">
          <mxGeometry x="570" y="690" width="220" height="340" as="geometry" />
        </mxCell>
        <mxCell id="LlD2N6Lq6FNutBNXST0i-10" value="-conn : connection" style="text;strokeColor=none;fillColor=none;align=left;verticalAlign=top;spacingLeft=4;spacingRight=4;overflow=hidden;rotatable=0;points=[[0,0.5],[1,0.5]];portConstraint=eastwest;fontSize=12;" vertex="1" parent="LlD2N6Lq6FNutBNXST0i-9">
          <mxGeometry y="26" width="220" height="26" as="geometry" />
        </mxCell>
        <mxCell id="LlD2N6Lq6FNutBNXST0i-11" value="" style="line;strokeWidth=1;fillColor=none;align=left;verticalAlign=middle;spacingTop=-1;spacingLeft=3;spacingRight=3;rotatable=0;labelPosition=right;points=[];portConstraint=eastwest;strokeColor=inherit;fontSize=10;" vertex="1" parent="LlD2N6Lq6FNutBNXST0i-9">
          <mxGeometry y="52" width="220" height="8" as="geometry" />
        </mxCell>
        <mxCell id="LlD2N6Lq6FNutBNXST0i-12" value="+insertEmp(EmpDTO) : int&#xa;+updateEmp(EmpDTO) : int&#xa;+readEmp(String) : EmpDTO&#xa;+listEmp : List&lt;&gt;&#xa;+insertCare(EmpDTO : int&#xa;+updateCare(EmpDTO) : int&#xa;+readMember(String) : EmpDTO&#xa;+listCare() : LIst&lt;&gt;&#xa;+insertAsal(EmpDTO) : int&#xa;+updateAsal(EmpDTO) : int&#xa;+listAsal() : List&lt;&gt;&#xa;+insertSett(AccDTO, EmpDTO) : int&#xa;+deleteSett(AccDTO, EmpDTO) : int&#xa;+listSett() : List&lt;&gt;&#xa;+insertAtt(EmpDTO) : int&#xa;+updateAtt(EmpDTO) : int&#xa;+insertAccSett(AccDTO, EmpDTO) : int&#xa;+updateAccSett(AccDTO) : int&#xa;+listAccSett() : List&lt;&gt;" style="text;strokeColor=none;fillColor=none;align=left;verticalAlign=top;spacingLeft=4;spacingRight=4;overflow=hidden;rotatable=0;points=[[0,0.5],[1,0.5]];portConstraint=eastwest;fontSize=12;" vertex="1" parent="LlD2N6Lq6FNutBNXST0i-9">
          <mxGeometry y="60" width="220" height="280" as="geometry" />
        </mxCell>
        <mxCell id="LlD2N6Lq6FNutBNXST0i-13" value="EmpUI" style="swimlane;fontStyle=1;align=center;verticalAlign=top;childLayout=stackLayout;horizontal=1;startSize=26;horizontalStack=0;resizeParent=1;resizeParentMax=0;resizeLast=0;collapsible=1;marginBottom=0;fontSize=12;" vertex="1" parent="1">
          <mxGeometry x="600" y="1080" width="160" height="460" as="geometry" />
        </mxCell>
        <mxCell id="LlD2N6Lq6FNutBNXST0i-14" value="-br : BufferedReader &#xa;-dao : EmpDao" style="text;strokeColor=none;fillColor=none;align=left;verticalAlign=top;spacingLeft=4;spacingRight=4;overflow=hidden;rotatable=0;points=[[0,0.5],[1,0.5]];portConstraint=eastwest;fontSize=12;" vertex="1" parent="LlD2N6Lq6FNutBNXST0i-13">
          <mxGeometry y="26" width="160" height="34" as="geometry" />
        </mxCell>
        <mxCell id="LlD2N6Lq6FNutBNXST0i-15" value="" style="line;strokeWidth=1;fillColor=none;align=left;verticalAlign=middle;spacingTop=-1;spacingLeft=3;spacingRight=3;rotatable=0;labelPosition=right;points=[];portConstraint=eastwest;strokeColor=inherit;fontSize=12;" vertex="1" parent="LlD2N6Lq6FNutBNXST0i-13">
          <mxGeometry y="60" width="160" height="8" as="geometry" />
        </mxCell>
        <mxCell id="LlD2N6Lq6FNutBNXST0i-16" value="+menu() : void&#xa;+menu1() : void&#xa;#insert() : void&#xa;#update() : void&#xa;#listAll() : void&#xa;#FindByEmp() : void&#xa;+menu2() : void&#xa;#cinsert() : void&#xa;#cupdate() : void&#xa;#clistAll() : void&#xa;#findByEmpNo() : void&#xa;+menu3() : void&#xa;#ainsert() : void&#xa;#aupdate() : void&#xa;#alistAll() : void&#xa;+menu4() : void&#xa;#sinsert() : void&#xa;#sdelete() : void&#xa;#slistAll() : void&#xa;+menu5() : void&#xa;#atinsert() : void&#xa;#atupdate() : void&#xa;#slistAll() : void&#xa;+menu6() : void&#xa;#acInsert() : void&#xa;#acUpdate() : void&#xa;#acListAll() : void" style="text;strokeColor=none;fillColor=none;align=left;verticalAlign=top;spacingLeft=4;spacingRight=4;overflow=hidden;rotatable=0;points=[[0,0.5],[1,0.5]];portConstraint=eastwest;fontSize=12;" vertex="1" parent="LlD2N6Lq6FNutBNXST0i-13">
          <mxGeometry y="68" width="160" height="392" as="geometry" />
        </mxCell>
        <mxCell id="LlD2N6Lq6FNutBNXST0i-18" value="&lt;p style=&quot;margin:0px;margin-top:4px;text-align:center;&quot;&gt;&lt;i&gt;&amp;lt;&amp;lt;Interface&amp;gt;&amp;gt;&lt;/i&gt;&lt;br&gt;&lt;b&gt;EmpDao&lt;/b&gt;&lt;/p&gt;&lt;hr size=&quot;1&quot;&gt;&lt;p style=&quot;margin: 0px 0px 0px 4px; font-size: 10px;&quot;&gt;&lt;br&gt;&lt;/p&gt;&lt;hr size=&quot;1&quot;&gt;&lt;p style=&quot;margin:0px;margin-left:4px;&quot;&gt;+insertEmp(EmpDTO) : int&lt;br style=&quot;padding: 0px; margin: 0px;&quot;&gt;+updateEmp(EmpDTO) : int&lt;br style=&quot;padding: 0px; margin: 0px;&quot;&gt;+readEmp(String) : EmpDTO&lt;br style=&quot;padding: 0px; margin: 0px;&quot;&gt;+listEmp : List&amp;lt;&amp;gt;&lt;br style=&quot;padding: 0px; margin: 0px;&quot;&gt;+insertCare(EmpDTO : int&lt;br style=&quot;padding: 0px; margin: 0px;&quot;&gt;+updateCare(EmpDTO) : int&lt;br style=&quot;padding: 0px; margin: 0px;&quot;&gt;+readMember(String) : EmpDTO&lt;br style=&quot;padding: 0px; margin: 0px;&quot;&gt;+listCare() : LIst&amp;lt;&amp;gt;&lt;br style=&quot;padding: 0px; margin: 0px;&quot;&gt;+insertAsal(EmpDTO) : int&lt;br style=&quot;padding: 0px; margin: 0px;&quot;&gt;+updateAsal(EmpDTO) : int&lt;br style=&quot;padding: 0px; margin: 0px;&quot;&gt;+listAsal() : List&amp;lt;&amp;gt;&lt;br style=&quot;padding: 0px; margin: 0px;&quot;&gt;+insertSett(AccDTO, EmpDTO) : int&lt;br style=&quot;padding: 0px; margin: 0px;&quot;&gt;+deleteSett(AccDTO, EmpDTO) : int&lt;br style=&quot;padding: 0px; margin: 0px;&quot;&gt;+listSett() : List&amp;lt;&amp;gt;&lt;br style=&quot;padding: 0px; margin: 0px;&quot;&gt;+insertAtt(EmpDTO) : int&lt;br style=&quot;padding: 0px; margin: 0px;&quot;&gt;+updateAtt(EmpDTO) : int&lt;br style=&quot;padding: 0px; margin: 0px;&quot;&gt;+insertAccSett(AccDTO, EmpDTO) : int&lt;br style=&quot;padding: 0px; margin: 0px;&quot;&gt;+updateAccSett(AccDTO) : int&lt;br style=&quot;padding: 0px; margin: 0px;&quot;&gt;+listAccSett() : List&amp;lt;&amp;gt;&lt;/p&gt;&lt;div style=&quot;padding: 0px; margin: 0px;&quot;&gt;&lt;br style=&quot;padding: 0px; margin: 0px;&quot;&gt;&lt;/div&gt;" style="verticalAlign=top;align=left;overflow=fill;fontSize=12;fontFamily=Helvetica;html=1;" vertex="1" parent="1">
          <mxGeometry x="250" y="890" width="230" height="350" as="geometry" />
        </mxCell>
        <mxCell id="LlD2N6Lq6FNutBNXST0i-19" value="" style="endArrow=block;dashed=1;endFill=0;endSize=12;html=1;rounded=0;fontSize=10;entryX=1.007;entryY=0.099;entryDx=0;entryDy=0;entryPerimeter=0;exitX=-0.019;exitY=0.326;exitDx=0;exitDy=0;exitPerimeter=0;" edge="1" parent="1" source="LlD2N6Lq6FNutBNXST0i-12" target="LlD2N6Lq6FNutBNXST0i-18">
          <mxGeometry width="160" relative="1" as="geometry">
            <mxPoint x="570" y="782" as="sourcePoint" />
            <mxPoint x="490" y="910" as="targetPoint" />
          </mxGeometry>
        </mxCell>
      </root>
    </mxGraphModel>
  </diagram>
</mxfile>
